<svg xmlns="http://www.w3.org/2000/svg" xmlns:xlink="http://www.w3.org/1999/xlink" width="500" zoomAndPan="magnify" viewBox="0 0 375 374.999991" height="500" preserveAspectRatio="xMidYMid meet" version="1.0"><defs><g/></defs><g fill="#f65622" fill-opacity="1"><g transform="translate(158.768823, 186.689307)"><g><path d="M 6.28125 -0.3125 C 6.613281 -0.519531 6.859375 -0.847656 7.015625 -1.296875 C 7.179688 -1.742188 7.296875 -2.242188 7.359375 -2.796875 C 7.421875 -3.359375 7.453125 -3.898438 7.453125 -4.421875 C 7.460938 -4.953125 7.484375 -5.378906 7.515625 -5.703125 C 7.554688 -6.234375 7.597656 -6.765625 7.640625 -7.296875 C 7.679688 -7.835938 7.710938 -8.375 7.734375 -8.90625 C 7.765625 -9.332031 7.796875 -9.613281 7.828125 -9.75 C 7.867188 -9.894531 7.960938 -9.984375 8.109375 -10.015625 C 8.265625 -10.054688 8.519531 -10.117188 8.875 -10.203125 C 9.1875 -10.273438 9.5 -10.425781 9.8125 -10.65625 C 10.132812 -10.882812 10.410156 -11.15625 10.640625 -11.46875 C 10.878906 -11.78125 11.03125 -12.085938 11.09375 -12.390625 C 11.164062 -12.691406 11.109375 -12.957031 10.921875 -13.1875 C 10.742188 -13.425781 10.394531 -13.585938 9.875 -13.671875 C 8.9375 -13.835938 7.96875 -13.921875 6.96875 -13.921875 C 5.976562 -13.921875 5.007812 -13.925781 4.0625 -13.9375 C 3.488281 -13.957031 2.941406 -13.929688 2.421875 -13.859375 C 1.910156 -13.785156 1.492188 -13.59375 1.171875 -13.28125 C 0.859375 -12.96875 0.6875 -12.46875 0.65625 -11.78125 C 0.632812 -11.175781 0.722656 -10.703125 0.921875 -10.359375 C 1.117188 -10.023438 1.359375 -9.78125 1.640625 -9.625 C 1.929688 -9.476562 2.222656 -9.394531 2.515625 -9.375 C 2.804688 -9.351562 3.046875 -9.359375 3.234375 -9.390625 C 3.421875 -9.429688 3.5 -9.453125 3.46875 -9.453125 C 3.675781 -9.484375 3.8125 -9.375 3.875 -9.125 C 3.945312 -8.875 3.976562 -8.5625 3.96875 -8.1875 C 3.957031 -7.820312 3.929688 -7.457031 3.890625 -7.09375 C 3.859375 -6.738281 3.84375 -6.472656 3.84375 -6.296875 C 3.832031 -5.734375 3.828125 -5.164062 3.828125 -4.59375 C 3.835938 -4.03125 3.863281 -3.472656 3.90625 -2.921875 C 3.925781 -2.597656 3.96875 -2.222656 4.03125 -1.796875 C 4.09375 -1.378906 4.207031 -1.003906 4.375 -0.671875 C 4.539062 -0.335938 4.773438 -0.117188 5.078125 -0.015625 C 5.378906 0.078125 5.78125 -0.0195312 6.28125 -0.3125 Z M 6.28125 -0.3125 "/></g></g></g><g fill="#f65622" fill-opacity="1"><g transform="translate(169.571689, 186.689307)"><g><path d="M 1.0625 -0.546875 C 1.164062 -0.296875 1.335938 -0.132812 1.578125 -0.0625 C 1.816406 0.0078125 2.082031 0.0195312 2.375 -0.03125 C 2.664062 -0.0820312 2.925781 -0.175781 3.15625 -0.3125 C 3.394531 -0.457031 3.554688 -0.617188 3.640625 -0.796875 C 3.867188 -1.234375 4.003906 -1.707031 4.046875 -2.21875 C 4.097656 -2.726562 4.128906 -3.25 4.140625 -3.78125 C 4.148438 -4.3125 4.171875 -4.804688 4.203125 -5.265625 C 4.210938 -5.492188 4.257812 -5.847656 4.34375 -6.328125 C 4.425781 -6.816406 4.503906 -7.378906 4.578125 -8.015625 C 4.660156 -8.648438 4.726562 -9.296875 4.78125 -9.953125 C 4.832031 -10.617188 4.835938 -11.242188 4.796875 -11.828125 C 4.765625 -12.421875 4.660156 -12.921875 4.484375 -13.328125 C 4.316406 -13.734375 4.0625 -13.984375 3.71875 -14.078125 C 2.9375 -14.296875 2.328125 -14.300781 1.890625 -14.09375 C 1.453125 -13.882812 1.144531 -13.539062 0.96875 -13.0625 C 0.789062 -12.582031 0.691406 -12.035156 0.671875 -11.421875 C 0.660156 -10.816406 0.675781 -10.207031 0.71875 -9.59375 C 0.769531 -8.988281 0.800781 -8.457031 0.8125 -8 C 0.832031 -7.457031 0.820312 -6.847656 0.78125 -6.171875 C 0.75 -5.503906 0.71875 -4.820312 0.6875 -4.125 C 0.664062 -3.425781 0.675781 -2.765625 0.71875 -2.140625 C 0.769531 -1.523438 0.882812 -0.992188 1.0625 -0.546875 Z M 1.0625 -0.546875 "/></g></g></g><g fill="#f65622" fill-opacity="1"><g transform="translate(174.299307, 186.689307)"><g><path d="M 7.03125 -0.171875 C 7.539062 -0.316406 8.007812 -0.546875 8.4375 -0.859375 C 8.863281 -1.171875 9.203125 -1.554688 9.453125 -2.015625 C 9.546875 -2.171875 9.632812 -2.410156 9.71875 -2.734375 C 9.8125 -3.054688 9.859375 -3.382812 9.859375 -3.71875 C 9.859375 -4.050781 9.78125 -4.316406 9.625 -4.515625 C 9.46875 -4.710938 9.195312 -4.753906 8.8125 -4.640625 C 8.445312 -4.535156 8.128906 -4.347656 7.859375 -4.078125 C 7.597656 -3.816406 7.34375 -3.550781 7.09375 -3.28125 C 6.84375 -3.007812 6.539062 -2.804688 6.1875 -2.671875 C 5.695312 -2.492188 5.28125 -2.503906 4.9375 -2.703125 C 4.601562 -2.898438 4.332031 -3.195312 4.125 -3.59375 C 3.925781 -4 3.789062 -4.390625 3.71875 -4.765625 C 3.695312 -4.898438 3.707031 -5.15625 3.75 -5.53125 C 3.800781 -5.90625 3.875 -6.335938 3.96875 -6.828125 C 4.070312 -7.316406 4.207031 -7.796875 4.375 -8.265625 C 4.539062 -8.742188 4.722656 -9.160156 4.921875 -9.515625 C 5.128906 -9.867188 5.359375 -10.097656 5.609375 -10.203125 C 5.859375 -10.304688 6.125 -10.226562 6.40625 -9.96875 C 6.394531 -9.820312 6.351562 -9.570312 6.28125 -9.21875 C 6.207031 -8.875 6.144531 -8.503906 6.09375 -8.109375 C 6.050781 -7.710938 6.070312 -7.347656 6.15625 -7.015625 C 6.25 -6.679688 6.457031 -6.445312 6.78125 -6.3125 C 7.269531 -6.125 7.785156 -6.113281 8.328125 -6.28125 C 8.867188 -6.457031 9.28125 -6.765625 9.5625 -7.203125 C 9.875 -7.671875 10.054688 -8.195312 10.109375 -8.78125 C 10.171875 -9.375 10.125 -9.960938 9.96875 -10.546875 C 9.820312 -11.140625 9.570312 -11.671875 9.21875 -12.140625 C 8.863281 -12.617188 8.421875 -12.96875 7.890625 -13.1875 C 6.929688 -13.601562 6.050781 -13.707031 5.25 -13.5 C 4.457031 -13.289062 3.753906 -12.875 3.140625 -12.25 C 2.535156 -11.625 2.035156 -10.867188 1.640625 -9.984375 C 1.253906 -9.097656 0.976562 -8.171875 0.8125 -7.203125 C 0.65625 -6.234375 0.625 -5.296875 0.71875 -4.390625 C 0.8125 -3.492188 1.050781 -2.726562 1.4375 -2.09375 C 1.800781 -1.476562 2.296875 -1 2.921875 -0.65625 C 3.546875 -0.320312 4.222656 -0.113281 4.953125 -0.03125 C 5.679688 0.0507812 6.375 0.00390625 7.03125 -0.171875 Z M 7.03125 -0.171875 "/></g></g></g><g fill="#f65622" fill-opacity="1"><g transform="translate(184.792888, 186.689307)"><g><path d="M 1.90625 -0.046875 C 2.457031 0.0546875 2.890625 0 3.203125 -0.21875 C 3.523438 -0.4375 3.757812 -0.753906 3.90625 -1.171875 C 4.050781 -1.597656 4.144531 -2.066406 4.1875 -2.578125 C 4.238281 -3.085938 4.265625 -3.582031 4.265625 -4.0625 C 4.273438 -4.550781 4.296875 -4.960938 4.328125 -5.296875 C 4.328125 -5.273438 4.425781 -5.144531 4.625 -4.90625 C 4.820312 -4.664062 5.050781 -4.390625 5.3125 -4.078125 C 5.582031 -3.773438 5.832031 -3.484375 6.0625 -3.203125 C 6.300781 -2.921875 6.46875 -2.722656 6.5625 -2.609375 C 6.78125 -2.296875 7.03125 -1.976562 7.3125 -1.65625 C 7.59375 -1.34375 7.90625 -1.132812 8.25 -1.03125 C 8.59375 -0.9375 8.96875 -1.039062 9.375 -1.34375 C 9.78125 -1.65625 10 -1.992188 10.03125 -2.359375 C 10.0625 -2.734375 9.972656 -3.113281 9.765625 -3.5 C 9.554688 -3.894531 9.296875 -4.289062 8.984375 -4.6875 C 8.679688 -5.09375 8.390625 -5.5 8.109375 -5.90625 C 7.835938 -6.3125 7.644531 -6.695312 7.53125 -7.0625 C 7.414062 -7.4375 7.453125 -7.785156 7.640625 -8.109375 C 7.804688 -8.390625 8.046875 -8.671875 8.359375 -8.953125 C 8.679688 -9.234375 9.023438 -9.519531 9.390625 -9.8125 C 9.753906 -10.101562 10.085938 -10.398438 10.390625 -10.703125 C 10.691406 -11.015625 10.914062 -11.320312 11.0625 -11.625 C 11.21875 -11.925781 11.234375 -12.234375 11.109375 -12.546875 C 10.984375 -12.859375 10.664062 -13.160156 10.15625 -13.453125 C 9.832031 -13.660156 9.460938 -13.679688 9.046875 -13.515625 C 8.640625 -13.359375 8.21875 -13.097656 7.78125 -12.734375 C 7.351562 -12.378906 6.929688 -11.972656 6.515625 -11.515625 C 6.109375 -11.066406 5.738281 -10.644531 5.40625 -10.25 C 5.082031 -9.863281 4.832031 -9.578125 4.65625 -9.390625 C 4.6875 -9.828125 4.707031 -10.300781 4.71875 -10.8125 C 4.738281 -11.320312 4.71875 -11.8125 4.65625 -12.28125 C 4.601562 -12.75 4.476562 -13.148438 4.28125 -13.484375 C 4.082031 -13.816406 3.78125 -14.035156 3.375 -14.140625 C 2.976562 -14.242188 2.453125 -14.171875 1.796875 -13.921875 C 1.421875 -13.785156 1.148438 -13.515625 0.984375 -13.109375 C 0.828125 -12.703125 0.726562 -12.21875 0.6875 -11.65625 C 0.65625 -11.101562 0.660156 -10.535156 0.703125 -9.953125 C 0.742188 -9.367188 0.796875 -8.828125 0.859375 -8.328125 C 0.921875 -7.835938 0.953125 -7.457031 0.953125 -7.1875 C 0.953125 -6.945312 0.929688 -6.5625 0.890625 -6.03125 C 0.859375 -5.5 0.828125 -4.90625 0.796875 -4.25 C 0.765625 -3.59375 0.769531 -2.953125 0.8125 -2.328125 C 0.863281 -1.710938 0.96875 -1.191406 1.125 -0.765625 C 1.289062 -0.335938 1.550781 -0.0976562 1.90625 -0.046875 Z M 1.90625 -0.046875 "/></g></g></g><g fill="#f65622" fill-opacity="1"><g transform="translate(195.662027, 186.689307)"><g><path d="M 1.296875 -0.59375 C 1.503906 -0.34375 1.859375 -0.171875 2.359375 -0.078125 C 2.859375 0.00390625 3.425781 0.0234375 4.0625 -0.015625 C 4.695312 -0.0664062 5.332031 -0.164062 5.96875 -0.3125 C 6.601562 -0.457031 7.15625 -0.632812 7.625 -0.84375 C 8.101562 -1.0625 8.429688 -1.289062 8.609375 -1.53125 C 9.023438 -2.082031 9.242188 -2.535156 9.265625 -2.890625 C 9.285156 -3.242188 9.164062 -3.515625 8.90625 -3.703125 C 8.65625 -3.890625 8.316406 -4.015625 7.890625 -4.078125 C 7.472656 -4.140625 7.019531 -4.164062 6.53125 -4.15625 C 6.050781 -4.15625 5.59375 -4.140625 5.15625 -4.109375 C 4.71875 -4.078125 4.363281 -4.054688 4.09375 -4.046875 C 3.863281 -4.078125 3.726562 -4.171875 3.6875 -4.328125 C 3.644531 -4.492188 3.65625 -4.6875 3.71875 -4.90625 C 3.789062 -5.125 3.890625 -5.332031 4.015625 -5.53125 C 4.140625 -5.726562 4.257812 -5.875 4.375 -5.96875 C 4.695312 -6.226562 5.0625 -6.398438 5.46875 -6.484375 C 5.882812 -6.578125 6.296875 -6.671875 6.703125 -6.765625 C 7.109375 -6.867188 7.457031 -7.066406 7.75 -7.359375 C 8.132812 -7.742188 8.300781 -8.035156 8.25 -8.234375 C 8.195312 -8.429688 8.003906 -8.570312 7.671875 -8.65625 C 7.347656 -8.75 6.960938 -8.816406 6.515625 -8.859375 C 6.078125 -8.898438 5.65625 -8.957031 5.25 -9.03125 C 4.84375 -9.101562 4.535156 -9.222656 4.328125 -9.390625 C 4.117188 -9.554688 4.085938 -9.804688 4.234375 -10.140625 C 4.367188 -10.421875 4.625 -10.628906 5 -10.765625 C 5.375 -10.910156 5.789062 -11.03125 6.25 -11.125 C 6.71875 -11.21875 7.160156 -11.332031 7.578125 -11.46875 C 7.992188 -11.601562 8.3125 -11.796875 8.53125 -12.046875 C 8.75 -12.304688 8.789062 -12.679688 8.65625 -13.171875 C 8.601562 -13.421875 8.410156 -13.609375 8.078125 -13.734375 C 7.753906 -13.859375 7.363281 -13.941406 6.90625 -13.984375 C 6.457031 -14.023438 5.992188 -14.039062 5.515625 -14.03125 C 5.035156 -14.03125 4.601562 -14.015625 4.21875 -13.984375 C 3.832031 -13.953125 3.550781 -13.929688 3.375 -13.921875 C 2.90625 -13.898438 2.484375 -13.859375 2.109375 -13.796875 C 1.742188 -13.734375 1.457031 -13.578125 1.25 -13.328125 C 1.050781 -13.078125 0.953125 -12.675781 0.953125 -12.125 C 0.929688 -11.300781 0.910156 -10.476562 0.890625 -9.65625 C 0.867188 -8.832031 0.851562 -8.007812 0.84375 -7.1875 C 0.84375 -6.800781 0.816406 -6.304688 0.765625 -5.703125 C 0.710938 -5.097656 0.675781 -4.46875 0.65625 -3.8125 C 0.644531 -3.15625 0.679688 -2.539062 0.765625 -1.96875 C 0.859375 -1.394531 1.035156 -0.9375 1.296875 -0.59375 Z M 1.296875 -0.59375 "/></g></g></g><g fill="#f65622" fill-opacity="1"><g transform="translate(205.271936, 186.689307)"><g><path d="M 6.28125 -0.3125 C 6.613281 -0.519531 6.859375 -0.847656 7.015625 -1.296875 C 7.179688 -1.742188 7.296875 -2.242188 7.359375 -2.796875 C 7.421875 -3.359375 7.453125 -3.898438 7.453125 -4.421875 C 7.460938 -4.953125 7.484375 -5.378906 7.515625 -5.703125 C 7.554688 -6.234375 7.597656 -6.765625 7.640625 -7.296875 C 7.679688 -7.835938 7.710938 -8.375 7.734375 -8.90625 C 7.765625 -9.332031 7.796875 -9.613281 7.828125 -9.75 C 7.867188 -9.894531 7.960938 -9.984375 8.109375 -10.015625 C 8.265625 -10.054688 8.519531 -10.117188 8.875 -10.203125 C 9.1875 -10.273438 9.5 -10.425781 9.8125 -10.65625 C 10.132812 -10.882812 10.410156 -11.15625 10.640625 -11.46875 C 10.878906 -11.78125 11.03125 -12.085938 11.09375 -12.390625 C 11.164062 -12.691406 11.109375 -12.957031 10.921875 -13.1875 C 10.742188 -13.425781 10.394531 -13.585938 9.875 -13.671875 C 8.9375 -13.835938 7.96875 -13.921875 6.96875 -13.921875 C 5.976562 -13.921875 5.007812 -13.925781 4.0625 -13.9375 C 3.488281 -13.957031 2.941406 -13.929688 2.421875 -13.859375 C 1.910156 -13.785156 1.492188 -13.59375 1.171875 -13.28125 C 0.859375 -12.96875 0.6875 -12.46875 0.65625 -11.78125 C 0.632812 -11.175781 0.722656 -10.703125 0.921875 -10.359375 C 1.117188 -10.023438 1.359375 -9.78125 1.640625 -9.625 C 1.929688 -9.476562 2.222656 -9.394531 2.515625 -9.375 C 2.804688 -9.351562 3.046875 -9.359375 3.234375 -9.390625 C 3.421875 -9.429688 3.5 -9.453125 3.46875 -9.453125 C 3.675781 -9.484375 3.8125 -9.375 3.875 -9.125 C 3.945312 -8.875 3.976562 -8.5625 3.96875 -8.1875 C 3.957031 -7.820312 3.929688 -7.457031 3.890625 -7.09375 C 3.859375 -6.738281 3.84375 -6.472656 3.84375 -6.296875 C 3.832031 -5.734375 3.828125 -5.164062 3.828125 -4.59375 C 3.835938 -4.03125 3.863281 -3.472656 3.90625 -2.921875 C 3.925781 -2.597656 3.96875 -2.222656 4.03125 -1.796875 C 4.09375 -1.378906 4.207031 -1.003906 4.375 -0.671875 C 4.539062 -0.335938 4.773438 -0.117188 5.078125 -0.015625 C 5.378906 0.078125 5.78125 -0.0195312 6.28125 -0.3125 Z M 6.28125 -0.3125 "/></g></g></g><g fill="#f65622" fill-opacity="1"><g transform="translate(165.910605, 206.264685)"><g><path d="M 6.3125 -1.890625 C 6.675781 -2.367188 6.960938 -2.96875 7.171875 -3.6875 C 7.390625 -4.414062 7.519531 -5.175781 7.5625 -5.96875 C 7.601562 -6.769531 7.5625 -7.535156 7.4375 -8.265625 C 7.320312 -9.003906 7.117188 -9.628906 6.828125 -10.140625 C 6.804688 -10.234375 6.710938 -10.390625 6.546875 -10.609375 C 6.390625 -10.835938 6.171875 -11.070312 5.890625 -11.3125 C 5.609375 -11.5625 5.269531 -11.753906 4.875 -11.890625 C 4.476562 -12.035156 4.039062 -12.078125 3.5625 -12.015625 C 3.082031 -11.960938 2.566406 -11.75 2.015625 -11.375 C 1.421875 -10.96875 0.9375 -10.476562 0.5625 -9.90625 C 0.195312 -9.332031 -0.0546875 -8.707031 -0.203125 -8.03125 C -0.359375 -7.351562 -0.410156 -6.671875 -0.359375 -5.984375 C -0.316406 -5.296875 -0.179688 -4.632812 0.046875 -4 C 0.253906 -3.519531 0.53125 -3.050781 0.875 -2.59375 C 1.21875 -2.144531 1.613281 -1.753906 2.0625 -1.421875 C 2.519531 -1.085938 2.992188 -0.859375 3.484375 -0.734375 C 3.984375 -0.609375 4.472656 -0.628906 4.953125 -0.796875 C 5.441406 -0.972656 5.894531 -1.335938 6.3125 -1.890625 Z M 3.734375 -2.453125 C 3.367188 -2.535156 3.085938 -2.722656 2.890625 -3.015625 C 2.691406 -3.304688 2.554688 -3.644531 2.484375 -4.03125 C 2.421875 -4.425781 2.394531 -4.8125 2.40625 -5.1875 C 2.425781 -5.570312 2.460938 -5.90625 2.515625 -6.1875 C 2.554688 -6.40625 2.628906 -6.660156 2.734375 -6.953125 C 2.847656 -7.242188 2.988281 -7.519531 3.15625 -7.78125 C 3.332031 -8.039062 3.539062 -8.222656 3.78125 -8.328125 C 4.03125 -8.441406 4.3125 -8.4375 4.625 -8.3125 C 4.925781 -8.195312 5.15625 -7.960938 5.3125 -7.609375 C 5.46875 -7.265625 5.566406 -6.851562 5.609375 -6.375 C 5.660156 -5.894531 5.648438 -5.40625 5.578125 -4.90625 C 5.503906 -4.414062 5.382812 -3.96875 5.21875 -3.5625 C 5.050781 -3.164062 4.84375 -2.859375 4.59375 -2.640625 C 4.34375 -2.429688 4.054688 -2.367188 3.734375 -2.453125 Z M 3.734375 -2.453125 "/></g></g></g><g fill="#f65622" fill-opacity="1"><g transform="translate(174.705443, 204.897838)"><g><path d="M 1.34375 -0.25 C 1.832031 -0.21875 2.195312 -0.332031 2.4375 -0.59375 C 2.675781 -0.863281 2.820312 -1.210938 2.875 -1.640625 C 2.9375 -2.066406 2.941406 -2.523438 2.890625 -3.015625 C 2.847656 -3.515625 2.789062 -3.988281 2.71875 -4.4375 C 2.644531 -4.882812 2.601562 -5.25 2.59375 -5.53125 C 2.726562 -5.363281 2.890625 -5.117188 3.078125 -4.796875 C 3.273438 -4.484375 3.503906 -4.144531 3.765625 -3.78125 C 4.023438 -3.414062 4.304688 -3.070312 4.609375 -2.75 C 4.910156 -2.425781 5.234375 -2.15625 5.578125 -1.9375 C 5.929688 -1.726562 6.296875 -1.625 6.671875 -1.625 C 7.054688 -1.632812 7.453125 -1.785156 7.859375 -2.078125 C 8.109375 -2.253906 8.265625 -2.523438 8.328125 -2.890625 C 8.398438 -3.253906 8.414062 -3.660156 8.375 -4.109375 C 8.332031 -4.554688 8.257812 -5.007812 8.15625 -5.46875 C 8.0625 -5.925781 7.960938 -6.347656 7.859375 -6.734375 C 7.765625 -7.128906 7.703125 -7.441406 7.671875 -7.671875 C 7.648438 -7.828125 7.617188 -8.085938 7.578125 -8.453125 C 7.535156 -8.816406 7.476562 -9.21875 7.40625 -9.65625 C 7.34375 -10.09375 7.25 -10.507812 7.125 -10.90625 C 7.007812 -11.300781 6.859375 -11.613281 6.671875 -11.84375 C 6.484375 -12.082031 6.25 -12.175781 5.96875 -12.125 C 5.570312 -12.050781 5.28125 -11.851562 5.09375 -11.53125 C 4.914062 -11.21875 4.800781 -10.835938 4.75 -10.390625 C 4.695312 -9.953125 4.691406 -9.492188 4.734375 -9.015625 C 4.773438 -8.535156 4.820312 -8.082031 4.875 -7.65625 C 4.9375 -7.226562 4.96875 -6.878906 4.96875 -6.609375 C 4.488281 -7.097656 4.03125 -7.613281 3.59375 -8.15625 C 3.164062 -8.707031 2.707031 -9.226562 2.21875 -9.71875 C 2.164062 -10.070312 2.082031 -10.378906 1.96875 -10.640625 C 1.851562 -10.910156 1.6875 -11.109375 1.46875 -11.234375 C 1.257812 -11.367188 0.957031 -11.398438 0.5625 -11.328125 C 0.238281 -11.253906 -0.0390625 -11.160156 -0.28125 -11.046875 C -0.53125 -10.941406 -0.707031 -10.785156 -0.8125 -10.578125 C -0.914062 -10.367188 -0.9375 -10.070312 -0.875 -9.6875 C -0.789062 -9.0625 -0.691406 -8.4375 -0.578125 -7.8125 C -0.460938 -7.1875 -0.351562 -6.566406 -0.25 -5.953125 C -0.226562 -5.785156 -0.195312 -5.488281 -0.15625 -5.0625 C -0.113281 -4.632812 -0.0625 -4.148438 0 -3.609375 C 0.0507812 -3.078125 0.128906 -2.554688 0.234375 -2.046875 C 0.347656 -1.546875 0.488281 -1.125 0.65625 -0.78125 C 0.832031 -0.445312 1.0625 -0.269531 1.34375 -0.25 Z M 1.34375 -0.25 "/></g></g></g><g fill="#f65622" fill-opacity="1"><g transform="translate(183.810081, 203.482842)"><g><path d="M 2.0625 -0.34375 C 2.25 -0.375 2.328125 -0.390625 2.296875 -0.390625 C 2.273438 -0.390625 2.222656 -0.375 2.140625 -0.34375 C 2.066406 -0.320312 2.019531 -0.3125 2 -0.3125 C 1.976562 -0.3125 2.054688 -0.328125 2.234375 -0.359375 C 2.046875 -0.328125 2.003906 -0.316406 2.109375 -0.328125 C 2.222656 -0.335938 2.4375 -0.378906 2.75 -0.453125 C 3.0625 -0.523438 3.410156 -0.632812 3.796875 -0.78125 C 4.191406 -0.9375 4.578125 -1.128906 4.953125 -1.359375 C 5.335938 -1.585938 5.664062 -1.859375 5.9375 -2.171875 C 6.207031 -2.492188 6.367188 -2.851562 6.421875 -3.25 C 6.460938 -3.582031 6.394531 -3.816406 6.21875 -3.953125 C 6.050781 -4.085938 5.8125 -4.15625 5.5 -4.15625 C 5.195312 -4.15625 4.867188 -4.125 4.515625 -4.0625 C 4.171875 -4 3.851562 -3.925781 3.5625 -3.84375 C 3.269531 -3.769531 3.046875 -3.71875 2.890625 -3.6875 C 2.785156 -4.769531 2.71875 -5.867188 2.6875 -6.984375 C 2.664062 -8.109375 2.53125 -9.207031 2.28125 -10.28125 C 2.207031 -10.582031 2.050781 -10.828125 1.8125 -11.015625 C 1.582031 -11.210938 1.316406 -11.332031 1.015625 -11.375 C 0.722656 -11.425781 0.425781 -11.398438 0.125 -11.296875 C -0.164062 -11.203125 -0.40625 -11.003906 -0.59375 -10.703125 C -0.769531 -10.453125 -0.863281 -10.117188 -0.875 -9.703125 C -0.894531 -9.285156 -0.863281 -8.828125 -0.78125 -8.328125 C -0.695312 -7.835938 -0.59375 -7.34375 -0.46875 -6.84375 C -0.34375 -6.34375 -0.210938 -5.875 -0.078125 -5.4375 C 0.046875 -5 0.128906 -4.640625 0.171875 -4.359375 C 0.210938 -4.128906 0.242188 -3.832031 0.265625 -3.46875 C 0.296875 -3.101562 0.335938 -2.71875 0.390625 -2.3125 C 0.453125 -1.914062 0.539062 -1.550781 0.65625 -1.21875 C 0.769531 -0.882812 0.941406 -0.628906 1.171875 -0.453125 C 1.398438 -0.273438 1.695312 -0.238281 2.0625 -0.34375 Z M 2.0625 -0.34375 "/></g></g></g><g fill="#f65622" fill-opacity="1"><g transform="translate(190.901022, 202.380805)"><g><path d="M 0.765625 -0.5625 C 0.867188 -0.375 1.019531 -0.265625 1.21875 -0.234375 C 1.414062 -0.210938 1.625 -0.238281 1.84375 -0.3125 C 2.0625 -0.394531 2.253906 -0.503906 2.421875 -0.640625 C 2.585938 -0.773438 2.695312 -0.914062 2.75 -1.0625 C 2.875 -1.4375 2.925781 -1.820312 2.90625 -2.21875 C 2.882812 -2.625 2.84375 -3.03125 2.78125 -3.4375 C 2.726562 -3.851562 2.675781 -4.242188 2.625 -4.609375 C 2.613281 -4.796875 2.609375 -5.082031 2.609375 -5.46875 C 2.609375 -5.863281 2.597656 -6.3125 2.578125 -6.8125 C 2.566406 -7.3125 2.539062 -7.820312 2.5 -8.34375 C 2.46875 -8.863281 2.398438 -9.347656 2.296875 -9.796875 C 2.203125 -10.253906 2.0625 -10.632812 1.875 -10.9375 C 1.695312 -11.238281 1.46875 -11.398438 1.1875 -11.421875 C 0.539062 -11.492188 0.0625 -11.425781 -0.25 -11.21875 C -0.5625 -11.007812 -0.753906 -10.707031 -0.828125 -10.3125 C -0.898438 -9.914062 -0.90625 -9.476562 -0.84375 -9 C -0.789062 -8.519531 -0.707031 -8.039062 -0.59375 -7.5625 C -0.476562 -7.09375 -0.390625 -6.679688 -0.328125 -6.328125 C -0.253906 -5.898438 -0.1875 -5.425781 -0.125 -4.90625 C -0.0703125 -4.382812 -0.015625 -3.847656 0.046875 -3.296875 C 0.109375 -2.742188 0.195312 -2.226562 0.3125 -1.75 C 0.425781 -1.269531 0.578125 -0.875 0.765625 -0.5625 Z M 0.765625 -0.5625 "/></g></g></g><g fill="#f65622" fill-opacity="1"><g transform="translate(194.584171, 201.80839)"><g><path d="M 1.34375 -0.25 C 1.832031 -0.21875 2.195312 -0.332031 2.4375 -0.59375 C 2.675781 -0.863281 2.820312 -1.210938 2.875 -1.640625 C 2.9375 -2.066406 2.941406 -2.523438 2.890625 -3.015625 C 2.847656 -3.515625 2.789062 -3.988281 2.71875 -4.4375 C 2.644531 -4.882812 2.601562 -5.25 2.59375 -5.53125 C 2.726562 -5.363281 2.890625 -5.117188 3.078125 -4.796875 C 3.273438 -4.484375 3.503906 -4.144531 3.765625 -3.78125 C 4.023438 -3.414062 4.304688 -3.070312 4.609375 -2.75 C 4.910156 -2.425781 5.234375 -2.15625 5.578125 -1.9375 C 5.929688 -1.726562 6.296875 -1.625 6.671875 -1.625 C 7.054688 -1.632812 7.453125 -1.785156 7.859375 -2.078125 C 8.109375 -2.253906 8.265625 -2.523438 8.328125 -2.890625 C 8.398438 -3.253906 8.414062 -3.660156 8.375 -4.109375 C 8.332031 -4.554688 8.257812 -5.007812 8.15625 -5.46875 C 8.0625 -5.925781 7.960938 -6.347656 7.859375 -6.734375 C 7.765625 -7.128906 7.703125 -7.441406 7.671875 -7.671875 C 7.648438 -7.828125 7.617188 -8.085938 7.578125 -8.453125 C 7.535156 -8.816406 7.476562 -9.21875 7.40625 -9.65625 C 7.34375 -10.09375 7.25 -10.507812 7.125 -10.90625 C 7.007812 -11.300781 6.859375 -11.613281 6.671875 -11.84375 C 6.484375 -12.082031 6.25 -12.175781 5.96875 -12.125 C 5.570312 -12.050781 5.28125 -11.851562 5.09375 -11.53125 C 4.914062 -11.21875 4.800781 -10.835938 4.75 -10.390625 C 4.695312 -9.953125 4.691406 -9.492188 4.734375 -9.015625 C 4.773438 -8.535156 4.820312 -8.082031 4.875 -7.65625 C 4.9375 -7.226562 4.96875 -6.878906 4.96875 -6.609375 C 4.488281 -7.097656 4.03125 -7.613281 3.59375 -8.15625 C 3.164062 -8.707031 2.707031 -9.226562 2.21875 -9.71875 C 2.164062 -10.070312 2.082031 -10.378906 1.96875 -10.640625 C 1.851562 -10.910156 1.6875 -11.109375 1.46875 -11.234375 C 1.257812 -11.367188 0.957031 -11.398438 0.5625 -11.328125 C 0.238281 -11.253906 -0.0390625 -11.160156 -0.28125 -11.046875 C -0.53125 -10.941406 -0.707031 -10.785156 -0.8125 -10.578125 C -0.914062 -10.367188 -0.9375 -10.070312 -0.875 -9.6875 C -0.789062 -9.0625 -0.691406 -8.4375 -0.578125 -7.8125 C -0.460938 -7.1875 -0.351562 -6.566406 -0.25 -5.953125 C -0.226562 -5.785156 -0.195312 -5.488281 -0.15625 -5.0625 C -0.113281 -4.632812 -0.0625 -4.148438 0 -3.609375 C 0.0507812 -3.078125 0.128906 -2.554688 0.234375 -2.046875 C 0.347656 -1.546875 0.488281 -1.125 0.65625 -0.78125 C 0.832031 -0.445312 1.0625 -0.269531 1.34375 -0.25 Z M 1.34375 -0.25 "/></g></g></g><g fill="#f65622" fill-opacity="1"><g transform="translate(203.688808, 200.393395)"><g><path d="M 0.9375 -0.625 C 1.125 -0.445312 1.414062 -0.351562 1.8125 -0.34375 C 2.21875 -0.34375 2.664062 -0.394531 3.15625 -0.5 C 3.644531 -0.613281 4.128906 -0.769531 4.609375 -0.96875 C 5.085938 -1.164062 5.5 -1.375 5.84375 -1.59375 C 6.1875 -1.8125 6.414062 -2.023438 6.53125 -2.234375 C 6.78125 -2.722656 6.890625 -3.101562 6.859375 -3.375 C 6.828125 -3.65625 6.703125 -3.851562 6.484375 -3.96875 C 6.265625 -4.082031 5.988281 -4.132812 5.65625 -4.125 C 5.332031 -4.125 4.976562 -4.09375 4.59375 -4.03125 C 4.21875 -3.976562 3.859375 -3.910156 3.515625 -3.828125 C 3.179688 -3.753906 2.910156 -3.695312 2.703125 -3.65625 C 2.523438 -3.644531 2.410156 -3.695312 2.359375 -3.8125 C 2.304688 -3.9375 2.289062 -4.085938 2.3125 -4.265625 C 2.332031 -4.453125 2.378906 -4.628906 2.453125 -4.796875 C 2.523438 -4.972656 2.601562 -5.097656 2.6875 -5.171875 C 2.90625 -5.421875 3.171875 -5.601562 3.484375 -5.71875 C 3.796875 -5.84375 4.101562 -5.96875 4.40625 -6.09375 C 4.707031 -6.21875 4.953125 -6.410156 5.140625 -6.671875 C 5.398438 -7.003906 5.5 -7.242188 5.4375 -7.390625 C 5.375 -7.546875 5.207031 -7.640625 4.9375 -7.671875 C 4.664062 -7.710938 4.351562 -7.71875 4 -7.6875 C 3.644531 -7.664062 3.304688 -7.660156 2.984375 -7.671875 C 2.660156 -7.691406 2.410156 -7.75 2.234375 -7.84375 C 2.054688 -7.9375 2 -8.128906 2.0625 -8.421875 C 2.132812 -8.648438 2.3125 -8.835938 2.59375 -8.984375 C 2.875 -9.140625 3.1875 -9.285156 3.53125 -9.421875 C 3.882812 -9.554688 4.210938 -9.703125 4.515625 -9.859375 C 4.828125 -10.015625 5.050781 -10.207031 5.1875 -10.4375 C 5.332031 -10.664062 5.320312 -10.957031 5.15625 -11.3125 C 5.082031 -11.488281 4.910156 -11.609375 4.640625 -11.671875 C 4.367188 -11.734375 4.050781 -11.753906 3.6875 -11.734375 C 3.320312 -11.710938 2.953125 -11.671875 2.578125 -11.609375 C 2.210938 -11.546875 1.882812 -11.476562 1.59375 -11.40625 C 1.300781 -11.34375 1.085938 -11.289062 0.953125 -11.25 C 0.578125 -11.1875 0.253906 -11.101562 -0.015625 -11 C -0.296875 -10.90625 -0.5 -10.742188 -0.625 -10.515625 C -0.757812 -10.296875 -0.796875 -9.976562 -0.734375 -9.5625 C -0.640625 -8.914062 -0.550781 -8.269531 -0.46875 -7.625 C -0.394531 -6.988281 -0.3125 -6.34375 -0.21875 -5.6875 C -0.164062 -5.382812 -0.117188 -4.992188 -0.078125 -4.515625 C -0.046875 -4.046875 0 -3.554688 0.0625 -3.046875 C 0.125 -2.535156 0.222656 -2.0625 0.359375 -1.625 C 0.492188 -1.1875 0.6875 -0.851562 0.9375 -0.625 Z M 0.9375 -0.625 "/></g></g></g></svg>