<svg xmlns="http://www.w3.org/2000/svg" xmlns:xlink="http://www.w3.org/1999/xlink" width="165" zoomAndPan="magnify" viewBox="0 0 123.75 62.249996" height="83" preserveAspectRatio="xMidYMid meet" version="1.0"><defs><g/><clipPath id="4b80854a2a"><path d="M 34 8.273438 L 35 8.273438 L 35 9 L 34 9 Z M 34 8.273438 " clip-rule="nonzero"/></clipPath><clipPath id="a53224c1f9"><path d="M 121 50 L 122.890625 50 L 122.890625 52 L 121 52 Z M 121 50 " clip-rule="nonzero"/></clipPath><clipPath id="d2464589f2"><path d="M 29 8.273438 L 31 8.273438 L 31 9 L 29 9 Z M 29 8.273438 " clip-rule="nonzero"/></clipPath><clipPath id="cf7d4d6128"><path d="M 32 8.273438 L 122.890625 8.273438 L 122.890625 54 L 32 54 Z M 32 8.273438 " clip-rule="nonzero"/></clipPath><clipPath id="c3740e006b"><path d="M 0.613281 8.273438 L 33 8.273438 L 33 54 L 0.613281 54 Z M 0.613281 8.273438 " clip-rule="nonzero"/></clipPath></defs><path fill="#ffffff" d="M 32.386719 11.570312 L 31.929688 11.570312 L 31.929688 11.535156 C 30.636719 11.355469 29.558594 10.417969 29.1875 9.1875 L 6.734375 9.1875 C 3.878906 9.1875 1.558594 11.507812 1.558594 14.363281 L 1.558594 26.9375 C 3.519531 27.359375 4.988281 29.101562 4.988281 31.183594 C 4.988281 33.265625 3.519531 35.007812 1.558594 35.425781 L 1.558594 47.84375 C 1.558594 50.695312 3.882812 53.019531 6.734375 53.019531 L 29.242188 53.019531 C 29.65625 51.859375 30.695312 51.003906 31.929688 50.828125 L 31.929688 50.796875 L 32.839844 50.796875 L 32.839844 50.828125 C 34.074219 51.003906 35.113281 51.859375 35.527344 53.019531 L 116.40625 53.019531 C 119.257812 53.019531 121.582031 50.695312 121.582031 47.84375 L 121.582031 35.425781 C 119.625 35.007812 118.152344 33.261719 118.152344 31.183594 C 118.152344 29.105469 119.625 27.363281 121.582031 26.9375 L 121.582031 14.363281 C 121.582031 11.507812 119.257812 9.1875 116.40625 9.1875 L 35.585938 9.1875 C 35.210938 10.417969 34.140625 11.355469 32.84375 11.535156 L 32.84375 11.570312 Z M 32.84375 48.925781 L 31.929688 48.925781 L 31.929688 47.058594 L 32.84375 47.058594 Z M 32.84375 45.191406 L 31.929688 45.191406 L 31.929688 43.324219 L 32.84375 43.324219 Z M 32.84375 41.457031 L 31.929688 41.457031 L 31.929688 39.589844 L 32.84375 39.589844 Z M 32.84375 37.722656 L 31.929688 37.722656 L 31.929688 35.855469 L 32.84375 35.855469 Z M 32.84375 33.988281 L 31.929688 33.988281 L 31.929688 32.117188 L 32.84375 32.117188 Z M 32.84375 30.253906 L 31.929688 30.253906 L 31.929688 28.382812 L 32.84375 28.382812 Z M 32.84375 26.519531 L 31.929688 26.519531 L 31.929688 24.648438 L 32.84375 24.648438 Z M 32.84375 22.785156 L 31.929688 22.785156 L 31.929688 20.914062 L 32.84375 20.914062 Z M 32.84375 19.050781 L 31.929688 19.050781 L 31.929688 17.179688 L 32.84375 17.179688 Z M 32.84375 15.3125 L 31.929688 15.3125 L 31.929688 13.445312 L 32.84375 13.445312 Z M 32.84375 15.3125 " fill-opacity="1" fill-rule="nonzero"/><path fill="#3c2415" d="M 31.042969 10.253906 C 30.785156 10.082031 30.566406 9.863281 30.386719 9.609375 C 30.566406 9.863281 30.785156 10.082031 31.042969 10.253906 Z M 31.042969 10.253906 " fill-opacity="1" fill-rule="nonzero"/><path fill="#3c2415" d="M 120.277344 52.539062 C 120.578125 52.289062 120.855469 52.015625 121.101562 51.714844 C 120.851562 52.015625 120.578125 52.292969 120.277344 52.539062 Z M 120.277344 52.539062 " fill-opacity="1" fill-rule="nonzero"/><path fill="#3c2415" d="M 2.035156 51.714844 C 2.285156 52.015625 2.558594 52.292969 2.859375 52.539062 C 2.558594 52.289062 2.28125 52.015625 2.035156 51.714844 Z M 2.035156 51.714844 " fill-opacity="1" fill-rule="nonzero"/><g clip-path="url(#4b80854a2a)"><path fill="#3c2415" d="M 34.695312 8.984375 C 34.742188 8.832031 34.777344 8.679688 34.796875 8.515625 C 34.78125 8.679688 34.742188 8.832031 34.695312 8.984375 Z M 34.695312 8.984375 " fill-opacity="1" fill-rule="nonzero"/></g><g clip-path="url(#a53224c1f9)"><path fill="#3c2415" d="M 122.015625 50.210938 C 121.859375 50.578125 121.671875 50.921875 121.457031 51.246094 C 121.675781 50.921875 121.863281 50.578125 122.015625 50.210938 Z M 122.015625 50.210938 " fill-opacity="1" fill-rule="nonzero"/></g><path fill="#3c2415" d="M 34.386719 9.609375 C 34.207031 9.863281 33.984375 10.082031 33.730469 10.253906 C 33.984375 10.082031 34.207031 9.863281 34.386719 9.609375 Z M 34.386719 9.609375 " fill-opacity="1" fill-rule="nonzero"/><path fill="#3c2415" d="M 1.683594 51.246094 C 1.464844 50.921875 1.277344 50.578125 1.125 50.210938 C 1.28125 50.578125 1.46875 50.921875 1.683594 51.246094 Z M 1.683594 51.246094 " fill-opacity="1" fill-rule="nonzero"/><g clip-path="url(#d2464589f2)"><path fill="#3c2415" d="M 29.976562 8.515625 C 29.996094 8.679688 30.03125 8.832031 30.082031 8.984375 C 30.03125 8.832031 30 8.679688 29.976562 8.515625 Z M 29.976562 8.515625 " fill-opacity="1" fill-rule="nonzero"/></g><g clip-path="url(#cf7d4d6128)"><path fill="#3c2415" d="M 116.40625 8.273438 L 34.8125 8.273438 C 34.8125 8.355469 34.808594 8.4375 34.796875 8.515625 C 34.78125 8.679688 34.742188 8.832031 34.695312 8.984375 C 34.621094 9.207031 34.515625 9.417969 34.386719 9.605469 C 34.207031 9.859375 33.984375 10.078125 33.730469 10.25 C 33.347656 10.503906 32.882812 10.652344 32.386719 10.652344 L 32.84375 10.652344 L 32.84375 11.535156 C 34.140625 11.351562 35.210938 10.417969 35.585938 9.183594 L 116.40625 9.183594 C 119.257812 9.183594 121.582031 11.507812 121.582031 14.359375 L 121.582031 26.9375 C 119.625 27.359375 118.152344 29.101562 118.152344 31.183594 C 118.152344 33.265625 119.625 35.007812 121.582031 35.425781 L 121.582031 47.84375 C 121.582031 50.695312 119.257812 53.019531 116.40625 53.019531 L 35.53125 53.019531 C 35.117188 51.859375 34.078125 51.003906 32.839844 50.828125 L 32.839844 51.707031 L 32.386719 51.707031 C 33.65625 51.707031 34.699219 52.6875 34.800781 53.929688 L 116.40625 53.929688 C 117.875 53.929688 119.222656 53.410156 120.277344 52.539062 C 120.578125 52.289062 120.855469 52.015625 121.101562 51.714844 C 121.226562 51.566406 121.34375 51.40625 121.453125 51.246094 C 121.671875 50.921875 121.859375 50.578125 122.011719 50.210938 C 122.320312 49.484375 122.492188 48.683594 122.492188 47.84375 L 122.492188 34.613281 C 120.597656 34.613281 119.0625 33.078125 119.0625 31.183594 C 119.0625 29.292969 120.597656 27.757812 122.492188 27.757812 L 122.492188 14.363281 C 122.492188 11 119.765625 8.273438 116.402344 8.273438 Z M 116.40625 8.273438 " fill-opacity="1" fill-rule="nonzero"/></g><g clip-path="url(#c3740e006b)"><path fill="#3c2415" d="M 31.929688 50.828125 C 30.695312 51.003906 29.65625 51.859375 29.242188 53.019531 L 6.734375 53.019531 C 3.882812 53.019531 1.558594 50.695312 1.558594 47.84375 L 1.558594 35.425781 C 3.519531 35.007812 4.988281 33.261719 4.988281 31.183594 C 4.988281 29.105469 3.519531 27.363281 1.558594 26.9375 L 1.558594 14.363281 C 1.558594 11.507812 3.878906 9.1875 6.734375 9.1875 L 29.1875 9.1875 C 29.5625 10.417969 30.636719 11.355469 31.929688 11.535156 L 31.929688 10.65625 L 32.386719 10.65625 C 31.890625 10.65625 31.429688 10.507812 31.046875 10.253906 C 30.789062 10.082031 30.566406 9.863281 30.390625 9.609375 C 30.261719 9.421875 30.152344 9.210938 30.082031 8.984375 C 30.03125 8.835938 30 8.683594 29.976562 8.519531 C 29.96875 8.441406 29.960938 8.359375 29.960938 8.277344 L 6.734375 8.277344 C 3.371094 8.273438 0.648438 11 0.648438 14.363281 L 0.648438 27.753906 C 2.539062 27.753906 4.074219 29.289062 4.074219 31.179688 C 4.074219 33.074219 2.539062 34.609375 0.648438 34.609375 L 0.648438 47.839844 C 0.648438 48.679688 0.816406 49.480469 1.125 50.207031 C 1.28125 50.574219 1.46875 50.917969 1.683594 51.242188 C 1.792969 51.40625 1.910156 51.5625 2.035156 51.710938 C 2.285156 52.011719 2.558594 52.289062 2.859375 52.535156 C 3.914062 53.402344 5.261719 53.929688 6.730469 53.929688 L 29.96875 53.929688 C 30.070312 52.683594 31.117188 51.707031 32.386719 51.707031 L 31.929688 51.707031 L 31.929688 50.824219 Z M 31.929688 50.828125 " fill-opacity="1" fill-rule="nonzero"/></g><path fill="#3c2415" d="M 32.84375 11.570312 L 32.84375 11.535156 C 32.695312 11.558594 32.542969 11.570312 32.386719 11.570312 Z M 32.84375 11.570312 " fill-opacity="1" fill-rule="nonzero"/><path fill="#3c2415" d="M 32.386719 11.570312 C 32.230469 11.570312 32.078125 11.558594 31.929688 11.535156 L 31.929688 11.570312 Z M 32.386719 11.570312 " fill-opacity="1" fill-rule="nonzero"/><path fill="#3c2415" d="M 31.929688 11.535156 C 32.082031 11.558594 32.234375 11.570312 32.386719 11.570312 C 32.542969 11.570312 32.695312 11.558594 32.84375 11.535156 L 32.84375 10.65625 L 31.929688 10.65625 Z M 31.929688 11.535156 " fill-opacity="1" fill-rule="nonzero"/><path fill="#3c2415" d="M 31.929688 32.117188 L 32.84375 32.117188 L 32.84375 33.984375 L 31.929688 33.984375 Z M 31.929688 32.117188 " fill-opacity="1" fill-rule="nonzero"/><path fill="#3c2415" d="M 31.929688 13.4375 L 32.84375 13.4375 L 32.84375 15.308594 L 31.929688 15.308594 Z M 31.929688 13.4375 " fill-opacity="1" fill-rule="nonzero"/><path fill="#3c2415" d="M 31.929688 47.058594 L 32.84375 47.058594 L 32.84375 48.925781 L 31.929688 48.925781 Z M 31.929688 47.058594 " fill-opacity="1" fill-rule="nonzero"/><path fill="#3c2415" d="M 31.929688 24.644531 L 32.84375 24.644531 L 32.84375 26.515625 L 31.929688 26.515625 Z M 31.929688 24.644531 " fill-opacity="1" fill-rule="nonzero"/><path fill="#3c2415" d="M 31.929688 43.324219 L 32.84375 43.324219 L 32.84375 45.191406 L 31.929688 45.191406 Z M 31.929688 43.324219 " fill-opacity="1" fill-rule="nonzero"/><path fill="#3c2415" d="M 31.929688 20.910156 L 32.84375 20.910156 L 32.84375 22.777344 L 31.929688 22.777344 Z M 31.929688 20.910156 " fill-opacity="1" fill-rule="nonzero"/><path fill="#3c2415" d="M 31.929688 17.175781 L 32.84375 17.175781 L 32.84375 19.042969 L 31.929688 19.042969 Z M 31.929688 17.175781 " fill-opacity="1" fill-rule="nonzero"/><path fill="#3c2415" d="M 31.929688 39.589844 L 32.84375 39.589844 L 32.84375 41.457031 L 31.929688 41.457031 Z M 31.929688 39.589844 " fill-opacity="1" fill-rule="nonzero"/><path fill="#3c2415" d="M 31.929688 35.851562 L 32.84375 35.851562 L 32.84375 37.71875 L 31.929688 37.71875 Z M 31.929688 35.851562 " fill-opacity="1" fill-rule="nonzero"/><path fill="#3c2415" d="M 31.929688 28.382812 L 32.84375 28.382812 L 32.84375 30.25 L 31.929688 30.25 Z M 31.929688 28.382812 " fill-opacity="1" fill-rule="nonzero"/><path fill="#3c2415" d="M 32.386719 50.796875 C 32.542969 50.796875 32.691406 50.808594 32.839844 50.828125 L 32.839844 50.796875 Z M 32.386719 50.796875 " fill-opacity="1" fill-rule="nonzero"/><path fill="#3c2415" d="M 31.929688 50.828125 C 32.082031 50.808594 32.234375 50.796875 32.386719 50.796875 L 31.929688 50.796875 Z M 31.929688 50.828125 " fill-opacity="1" fill-rule="nonzero"/><path fill="#3c2415" d="M 32.84375 50.828125 C 32.695312 50.808594 32.542969 50.796875 32.390625 50.796875 L 32.386719 50.796875 C 32.234375 50.796875 32.082031 50.808594 31.933594 50.828125 L 31.933594 51.707031 L 32.84375 51.707031 Z M 32.84375 50.828125 " fill-opacity="1" fill-rule="nonzero"/><g fill="#f65622" fill-opacity="1"><g transform="translate(44.701866, 30.167465)"><g><path d="M 6.203125 -0.3125 C 6.535156 -0.507812 6.78125 -0.828125 6.9375 -1.265625 C 7.101562 -1.710938 7.210938 -2.210938 7.265625 -2.765625 C 7.328125 -3.328125 7.359375 -3.863281 7.359375 -4.375 C 7.367188 -4.894531 7.390625 -5.3125 7.421875 -5.625 C 7.460938 -6.15625 7.503906 -6.6875 7.546875 -7.21875 C 7.597656 -7.75 7.628906 -8.273438 7.640625 -8.796875 C 7.671875 -9.222656 7.703125 -9.503906 7.734375 -9.640625 C 7.773438 -9.773438 7.867188 -9.859375 8.015625 -9.890625 C 8.171875 -9.929688 8.425781 -9.992188 8.78125 -10.078125 C 9.082031 -10.148438 9.390625 -10.300781 9.703125 -10.53125 C 10.015625 -10.757812 10.285156 -11.023438 10.515625 -11.328125 C 10.753906 -11.628906 10.90625 -11.929688 10.96875 -12.234375 C 11.03125 -12.535156 10.96875 -12.800781 10.78125 -13.03125 C 10.601562 -13.257812 10.257812 -13.421875 9.75 -13.515625 C 8.820312 -13.671875 7.863281 -13.75 6.875 -13.75 C 5.894531 -13.75 4.941406 -13.757812 4.015625 -13.78125 C 3.453125 -13.789062 2.914062 -13.757812 2.40625 -13.6875 C 1.894531 -13.613281 1.484375 -13.421875 1.171875 -13.109375 C 0.859375 -12.804688 0.6875 -12.316406 0.65625 -11.640625 C 0.625 -11.035156 0.707031 -10.566406 0.90625 -10.234375 C 1.101562 -9.898438 1.34375 -9.660156 1.625 -9.515625 C 1.90625 -9.367188 2.191406 -9.285156 2.484375 -9.265625 C 2.773438 -9.242188 3.007812 -9.25 3.1875 -9.28125 C 3.375 -9.320312 3.453125 -9.34375 3.421875 -9.34375 C 3.628906 -9.375 3.765625 -9.265625 3.828125 -9.015625 C 3.890625 -8.765625 3.914062 -8.457031 3.90625 -8.09375 C 3.90625 -7.726562 3.882812 -7.367188 3.84375 -7.015625 C 3.8125 -6.660156 3.796875 -6.394531 3.796875 -6.21875 C 3.785156 -5.664062 3.78125 -5.109375 3.78125 -4.546875 C 3.789062 -3.984375 3.816406 -3.425781 3.859375 -2.875 C 3.878906 -2.5625 3.921875 -2.195312 3.984375 -1.78125 C 4.046875 -1.363281 4.15625 -0.988281 4.3125 -0.65625 C 4.476562 -0.332031 4.707031 -0.117188 5 -0.015625 C 5.300781 0.078125 5.703125 -0.0195312 6.203125 -0.3125 Z M 6.203125 -0.3125 "/></g></g></g><g fill="#f65622" fill-opacity="1"><g transform="translate(55.376126, 30.167465)"><g><path d="M 1.046875 -0.546875 C 1.148438 -0.296875 1.320312 -0.132812 1.5625 -0.0625 C 1.800781 0.0078125 2.0625 0.0195312 2.34375 -0.03125 C 2.625 -0.0820312 2.878906 -0.175781 3.109375 -0.3125 C 3.347656 -0.457031 3.515625 -0.613281 3.609375 -0.78125 C 3.816406 -1.21875 3.945312 -1.6875 4 -2.1875 C 4.050781 -2.695312 4.082031 -3.210938 4.09375 -3.734375 C 4.101562 -4.253906 4.117188 -4.738281 4.140625 -5.1875 C 4.160156 -5.425781 4.207031 -5.785156 4.28125 -6.265625 C 4.363281 -6.742188 4.445312 -7.296875 4.53125 -7.921875 C 4.613281 -8.546875 4.675781 -9.1875 4.71875 -9.84375 C 4.769531 -10.5 4.773438 -11.117188 4.734375 -11.703125 C 4.703125 -12.285156 4.601562 -12.773438 4.4375 -13.171875 C 4.269531 -13.578125 4.015625 -13.820312 3.671875 -13.90625 C 2.898438 -14.125 2.296875 -14.128906 1.859375 -13.921875 C 1.429688 -13.722656 1.128906 -13.382812 0.953125 -12.90625 C 0.785156 -12.4375 0.691406 -11.898438 0.671875 -11.296875 C 0.660156 -10.691406 0.675781 -10.085938 0.71875 -9.484375 C 0.757812 -8.878906 0.789062 -8.351562 0.8125 -7.90625 C 0.820312 -7.363281 0.804688 -6.757812 0.765625 -6.09375 C 0.734375 -5.4375 0.707031 -4.757812 0.6875 -4.0625 C 0.664062 -3.375 0.675781 -2.722656 0.71875 -2.109375 C 0.757812 -1.503906 0.867188 -0.984375 1.046875 -0.546875 Z M 1.046875 -0.546875 "/></g></g></g><g fill="#f65622" fill-opacity="1"><g transform="translate(60.047463, 30.167465)"><g><path d="M 6.9375 -0.171875 C 7.445312 -0.316406 7.910156 -0.539062 8.328125 -0.84375 C 8.753906 -1.15625 9.09375 -1.535156 9.34375 -1.984375 C 9.425781 -2.140625 9.507812 -2.378906 9.59375 -2.703125 C 9.6875 -3.023438 9.734375 -3.347656 9.734375 -3.671875 C 9.734375 -4.003906 9.65625 -4.269531 9.5 -4.46875 C 9.351562 -4.664062 9.085938 -4.703125 8.703125 -4.578125 C 8.335938 -4.484375 8.023438 -4.300781 7.765625 -4.03125 C 7.503906 -3.769531 7.25 -3.503906 7 -3.234375 C 6.757812 -2.972656 6.460938 -2.773438 6.109375 -2.640625 C 5.628906 -2.460938 5.222656 -2.472656 4.890625 -2.671875 C 4.554688 -2.867188 4.285156 -3.160156 4.078125 -3.546875 C 3.878906 -3.941406 3.742188 -4.332031 3.671875 -4.71875 C 3.648438 -4.84375 3.660156 -5.09375 3.703125 -5.46875 C 3.753906 -5.84375 3.828125 -6.269531 3.921875 -6.75 C 4.023438 -7.226562 4.15625 -7.703125 4.3125 -8.171875 C 4.476562 -8.648438 4.660156 -9.0625 4.859375 -9.40625 C 5.066406 -9.757812 5.296875 -9.984375 5.546875 -10.078125 C 5.796875 -10.179688 6.054688 -10.101562 6.328125 -9.84375 C 6.316406 -9.695312 6.273438 -9.453125 6.203125 -9.109375 C 6.128906 -8.765625 6.066406 -8.394531 6.015625 -8 C 5.972656 -7.613281 5.992188 -7.253906 6.078125 -6.921875 C 6.171875 -6.597656 6.378906 -6.375 6.703125 -6.25 C 7.179688 -6.050781 7.6875 -6.035156 8.21875 -6.203125 C 8.757812 -6.378906 9.171875 -6.679688 9.453125 -7.109375 C 9.753906 -7.578125 9.929688 -8.101562 9.984375 -8.6875 C 10.046875 -9.269531 10 -9.851562 9.84375 -10.4375 C 9.695312 -11.019531 9.445312 -11.539062 9.09375 -12 C 8.75 -12.46875 8.316406 -12.8125 7.796875 -13.03125 C 6.847656 -13.4375 5.976562 -13.535156 5.1875 -13.328125 C 4.40625 -13.128906 3.710938 -12.71875 3.109375 -12.09375 C 2.503906 -11.476562 2.007812 -10.734375 1.625 -9.859375 C 1.238281 -8.992188 0.960938 -8.078125 0.796875 -7.109375 C 0.640625 -6.148438 0.609375 -5.226562 0.703125 -4.34375 C 0.796875 -3.457031 1.035156 -2.703125 1.421875 -2.078125 C 1.785156 -1.460938 2.273438 -0.988281 2.890625 -0.65625 C 3.503906 -0.320312 4.171875 -0.113281 4.890625 -0.03125 C 5.617188 0.0507812 6.300781 0.00390625 6.9375 -0.171875 Z M 6.9375 -0.171875 "/></g></g></g><g fill="#f65622" fill-opacity="1"><g transform="translate(70.416119, 30.167465)"><g><path d="M 1.875 -0.046875 C 2.425781 0.0546875 2.859375 0 3.171875 -0.21875 C 3.484375 -0.4375 3.710938 -0.753906 3.859375 -1.171875 C 4.003906 -1.585938 4.097656 -2.046875 4.140625 -2.546875 C 4.191406 -3.046875 4.21875 -3.535156 4.21875 -4.015625 C 4.226562 -4.492188 4.25 -4.898438 4.28125 -5.234375 C 4.28125 -5.203125 4.378906 -5.070312 4.578125 -4.84375 C 4.773438 -4.613281 5.003906 -4.34375 5.265625 -4.03125 C 5.523438 -3.726562 5.769531 -3.4375 6 -3.15625 C 6.238281 -2.882812 6.398438 -2.691406 6.484375 -2.578125 C 6.703125 -2.273438 6.945312 -1.960938 7.21875 -1.640625 C 7.5 -1.328125 7.8125 -1.117188 8.15625 -1.015625 C 8.5 -0.921875 8.863281 -1.023438 9.25 -1.328125 C 9.65625 -1.640625 9.875 -1.972656 9.90625 -2.328125 C 9.9375 -2.691406 9.847656 -3.066406 9.640625 -3.453125 C 9.441406 -3.835938 9.1875 -4.226562 8.875 -4.625 C 8.570312 -5.03125 8.285156 -5.429688 8.015625 -5.828125 C 7.753906 -6.234375 7.5625 -6.617188 7.4375 -6.984375 C 7.320312 -7.347656 7.359375 -7.691406 7.546875 -8.015625 C 7.710938 -8.285156 7.953125 -8.554688 8.265625 -8.828125 C 8.578125 -9.109375 8.914062 -9.394531 9.28125 -9.6875 C 9.644531 -9.976562 9.972656 -10.273438 10.265625 -10.578125 C 10.566406 -10.890625 10.789062 -11.191406 10.9375 -11.484375 C 11.082031 -11.785156 11.09375 -12.085938 10.96875 -12.390625 C 10.84375 -12.703125 10.535156 -13.003906 10.046875 -13.296875 C 9.722656 -13.492188 9.359375 -13.515625 8.953125 -13.359375 C 8.546875 -13.203125 8.125 -12.941406 7.6875 -12.578125 C 7.257812 -12.222656 6.84375 -11.820312 6.4375 -11.375 C 6.03125 -10.9375 5.664062 -10.523438 5.34375 -10.140625 C 5.03125 -9.753906 4.785156 -9.46875 4.609375 -9.28125 C 4.640625 -9.71875 4.660156 -10.1875 4.671875 -10.6875 C 4.679688 -11.1875 4.65625 -11.664062 4.59375 -12.125 C 4.539062 -12.59375 4.414062 -12.988281 4.21875 -13.3125 C 4.019531 -13.644531 3.722656 -13.863281 3.328125 -13.96875 C 2.941406 -14.070312 2.421875 -14 1.765625 -13.75 C 1.398438 -13.625 1.132812 -13.359375 0.96875 -12.953125 C 0.8125 -12.554688 0.71875 -12.082031 0.6875 -11.53125 C 0.65625 -10.976562 0.660156 -10.410156 0.703125 -9.828125 C 0.742188 -9.253906 0.789062 -8.722656 0.84375 -8.234375 C 0.90625 -7.753906 0.9375 -7.375 0.9375 -7.09375 C 0.9375 -6.863281 0.914062 -6.484375 0.875 -5.953125 C 0.84375 -5.429688 0.8125 -4.847656 0.78125 -4.203125 C 0.75 -3.554688 0.753906 -2.925781 0.796875 -2.3125 C 0.847656 -1.695312 0.953125 -1.175781 1.109375 -0.75 C 1.273438 -0.332031 1.53125 -0.0976562 1.875 -0.046875 Z M 1.875 -0.046875 "/></g></g></g><g fill="#f65622" fill-opacity="1"><g transform="translate(81.155864, 30.167465)"><g><path d="M 1.28125 -0.59375 C 1.488281 -0.34375 1.835938 -0.171875 2.328125 -0.078125 C 2.828125 0.00390625 3.390625 0.0234375 4.015625 -0.015625 C 4.640625 -0.0664062 5.265625 -0.164062 5.890625 -0.3125 C 6.515625 -0.457031 7.0625 -0.632812 7.53125 -0.84375 C 8.007812 -1.050781 8.335938 -1.269531 8.515625 -1.5 C 8.921875 -2.050781 9.132812 -2.503906 9.15625 -2.859375 C 9.175781 -3.210938 9.054688 -3.476562 8.796875 -3.65625 C 8.546875 -3.832031 8.210938 -3.953125 7.796875 -4.015625 C 7.390625 -4.085938 6.941406 -4.117188 6.453125 -4.109375 C 5.972656 -4.109375 5.519531 -4.09375 5.09375 -4.0625 C 4.664062 -4.03125 4.3125 -4.007812 4.03125 -4 C 3.8125 -4.019531 3.679688 -4.109375 3.640625 -4.265625 C 3.597656 -4.429688 3.609375 -4.625 3.671875 -4.84375 C 3.742188 -5.0625 3.835938 -5.269531 3.953125 -5.46875 C 4.078125 -5.664062 4.203125 -5.804688 4.328125 -5.890625 C 4.640625 -6.148438 5 -6.320312 5.40625 -6.40625 C 5.820312 -6.5 6.226562 -6.59375 6.625 -6.6875 C 7.019531 -6.78125 7.363281 -6.972656 7.65625 -7.265625 C 8.039062 -7.648438 8.207031 -7.9375 8.15625 -8.125 C 8.101562 -8.320312 7.910156 -8.460938 7.578125 -8.546875 C 7.253906 -8.640625 6.875 -8.707031 6.4375 -8.75 C 6 -8.789062 5.578125 -8.847656 5.171875 -8.921875 C 4.773438 -8.992188 4.472656 -9.109375 4.265625 -9.265625 C 4.066406 -9.429688 4.039062 -9.679688 4.1875 -10.015625 C 4.320312 -10.296875 4.570312 -10.503906 4.9375 -10.640625 C 5.3125 -10.773438 5.726562 -10.890625 6.1875 -10.984375 C 6.644531 -11.078125 7.078125 -11.191406 7.484375 -11.328125 C 7.890625 -11.460938 8.203125 -11.65625 8.421875 -11.90625 C 8.640625 -12.164062 8.6875 -12.535156 8.5625 -13.015625 C 8.5 -13.253906 8.304688 -13.4375 7.984375 -13.5625 C 7.671875 -13.6875 7.285156 -13.769531 6.828125 -13.8125 C 6.378906 -13.851562 5.914062 -13.867188 5.4375 -13.859375 C 4.96875 -13.859375 4.546875 -13.84375 4.171875 -13.8125 C 3.796875 -13.789062 3.519531 -13.769531 3.34375 -13.75 C 2.875 -13.738281 2.457031 -13.695312 2.09375 -13.625 C 1.726562 -13.5625 1.441406 -13.40625 1.234375 -13.15625 C 1.035156 -12.914062 0.9375 -12.523438 0.9375 -11.984375 C 0.925781 -11.171875 0.90625 -10.351562 0.875 -9.53125 C 0.851562 -8.71875 0.835938 -7.90625 0.828125 -7.09375 C 0.828125 -6.71875 0.800781 -6.226562 0.75 -5.625 C 0.695312 -5.03125 0.664062 -4.410156 0.65625 -3.765625 C 0.644531 -3.117188 0.679688 -2.507812 0.765625 -1.9375 C 0.847656 -1.375 1.019531 -0.925781 1.28125 -0.59375 Z M 1.28125 -0.59375 "/></g></g></g><g fill="#f65622" fill-opacity="1"><g transform="translate(90.651368, 30.167465)"><g><path d="M 6.203125 -0.3125 C 6.535156 -0.507812 6.78125 -0.828125 6.9375 -1.265625 C 7.101562 -1.710938 7.210938 -2.210938 7.265625 -2.765625 C 7.328125 -3.328125 7.359375 -3.863281 7.359375 -4.375 C 7.367188 -4.894531 7.390625 -5.3125 7.421875 -5.625 C 7.460938 -6.15625 7.503906 -6.6875 7.546875 -7.21875 C 7.597656 -7.75 7.628906 -8.273438 7.640625 -8.796875 C 7.671875 -9.222656 7.703125 -9.503906 7.734375 -9.640625 C 7.773438 -9.773438 7.867188 -9.859375 8.015625 -9.890625 C 8.171875 -9.929688 8.425781 -9.992188 8.78125 -10.078125 C 9.082031 -10.148438 9.390625 -10.300781 9.703125 -10.53125 C 10.015625 -10.757812 10.285156 -11.023438 10.515625 -11.328125 C 10.753906 -11.628906 10.90625 -11.929688 10.96875 -12.234375 C 11.03125 -12.535156 10.96875 -12.800781 10.78125 -13.03125 C 10.601562 -13.257812 10.257812 -13.421875 9.75 -13.515625 C 8.820312 -13.671875 7.863281 -13.75 6.875 -13.75 C 5.894531 -13.75 4.941406 -13.757812 4.015625 -13.78125 C 3.453125 -13.789062 2.914062 -13.757812 2.40625 -13.6875 C 1.894531 -13.613281 1.484375 -13.421875 1.171875 -13.109375 C 0.859375 -12.804688 0.6875 -12.316406 0.65625 -11.640625 C 0.625 -11.035156 0.707031 -10.566406 0.90625 -10.234375 C 1.101562 -9.898438 1.34375 -9.660156 1.625 -9.515625 C 1.90625 -9.367188 2.191406 -9.285156 2.484375 -9.265625 C 2.773438 -9.242188 3.007812 -9.25 3.1875 -9.28125 C 3.375 -9.320312 3.453125 -9.34375 3.421875 -9.34375 C 3.628906 -9.375 3.765625 -9.265625 3.828125 -9.015625 C 3.890625 -8.765625 3.914062 -8.457031 3.90625 -8.09375 C 3.90625 -7.726562 3.882812 -7.367188 3.84375 -7.015625 C 3.8125 -6.660156 3.796875 -6.394531 3.796875 -6.21875 C 3.785156 -5.664062 3.78125 -5.109375 3.78125 -4.546875 C 3.789062 -3.984375 3.816406 -3.425781 3.859375 -2.875 C 3.878906 -2.5625 3.921875 -2.195312 3.984375 -1.78125 C 4.046875 -1.363281 4.15625 -0.988281 4.3125 -0.65625 C 4.476562 -0.332031 4.707031 -0.117188 5 -0.015625 C 5.300781 0.078125 5.703125 -0.0195312 6.203125 -0.3125 Z M 6.203125 -0.3125 "/></g></g></g><g fill="#f65622" fill-opacity="1"><g transform="translate(51.758636, 49.509906)"><g><path d="M 6.234375 -1.859375 C 6.597656 -2.347656 6.882812 -2.945312 7.09375 -3.65625 C 7.300781 -4.363281 7.429688 -5.113281 7.484375 -5.90625 C 7.535156 -6.695312 7.5 -7.453125 7.375 -8.171875 C 7.25 -8.898438 7.039062 -9.519531 6.75 -10.03125 C 6.738281 -10.113281 6.648438 -10.265625 6.484375 -10.484375 C 6.316406 -10.710938 6.09375 -10.945312 5.8125 -11.1875 C 5.539062 -11.425781 5.207031 -11.613281 4.8125 -11.75 C 4.425781 -11.894531 4 -11.9375 3.53125 -11.875 C 3.0625 -11.820312 2.546875 -11.609375 1.984375 -11.234375 C 1.398438 -10.835938 0.925781 -10.351562 0.5625 -9.78125 C 0.195312 -9.21875 -0.0546875 -8.601562 -0.203125 -7.9375 C -0.347656 -7.269531 -0.394531 -6.59375 -0.34375 -5.90625 C -0.300781 -5.226562 -0.164062 -4.578125 0.0625 -3.953125 C 0.25 -3.484375 0.515625 -3.023438 0.859375 -2.578125 C 1.210938 -2.128906 1.609375 -1.738281 2.046875 -1.40625 C 2.492188 -1.082031 2.960938 -0.851562 3.453125 -0.71875 C 3.941406 -0.59375 4.425781 -0.613281 4.90625 -0.78125 C 5.382812 -0.957031 5.828125 -1.316406 6.234375 -1.859375 Z M 3.6875 -2.421875 C 3.332031 -2.503906 3.054688 -2.691406 2.859375 -2.984375 C 2.671875 -3.273438 2.539062 -3.613281 2.46875 -4 C 2.394531 -4.382812 2.363281 -4.765625 2.375 -5.140625 C 2.382812 -5.515625 2.421875 -5.832031 2.484375 -6.09375 C 2.523438 -6.320312 2.597656 -6.582031 2.703125 -6.875 C 2.804688 -7.164062 2.945312 -7.4375 3.125 -7.6875 C 3.300781 -7.9375 3.507812 -8.117188 3.75 -8.234375 C 3.988281 -8.347656 4.257812 -8.34375 4.5625 -8.21875 C 4.863281 -8.113281 5.09375 -7.882812 5.25 -7.53125 C 5.414062 -7.175781 5.515625 -6.765625 5.546875 -6.296875 C 5.585938 -5.828125 5.570312 -5.347656 5.5 -4.859375 C 5.425781 -4.378906 5.304688 -3.9375 5.140625 -3.53125 C 4.984375 -3.132812 4.78125 -2.832031 4.53125 -2.625 C 4.28125 -2.414062 4 -2.347656 3.6875 -2.421875 Z M 3.6875 -2.421875 "/></g></g></g><g fill="#f65622" fill-opacity="1"><g transform="translate(60.448774, 48.15933)"><g><path d="M 1.328125 -0.25 C 1.804688 -0.207031 2.164062 -0.316406 2.40625 -0.578125 C 2.644531 -0.835938 2.789062 -1.179688 2.84375 -1.609375 C 2.894531 -2.046875 2.898438 -2.507812 2.859375 -3 C 2.816406 -3.488281 2.757812 -3.953125 2.6875 -4.390625 C 2.625 -4.835938 2.582031 -5.195312 2.5625 -5.46875 C 2.6875 -5.300781 2.84375 -5.0625 3.03125 -4.75 C 3.226562 -4.4375 3.457031 -4.097656 3.71875 -3.734375 C 3.976562 -3.378906 4.253906 -3.035156 4.546875 -2.703125 C 4.847656 -2.378906 5.171875 -2.113281 5.515625 -1.90625 C 5.859375 -1.707031 6.21875 -1.609375 6.59375 -1.609375 C 6.96875 -1.617188 7.359375 -1.765625 7.765625 -2.046875 C 8.015625 -2.222656 8.171875 -2.488281 8.234375 -2.84375 C 8.304688 -3.207031 8.320312 -3.609375 8.28125 -4.046875 C 8.238281 -4.492188 8.164062 -4.941406 8.0625 -5.390625 C 7.96875 -5.847656 7.867188 -6.269531 7.765625 -6.65625 C 7.671875 -7.039062 7.609375 -7.351562 7.578125 -7.59375 C 7.554688 -7.738281 7.523438 -7.988281 7.484375 -8.34375 C 7.453125 -8.707031 7.398438 -9.101562 7.328125 -9.53125 C 7.265625 -9.96875 7.175781 -10.378906 7.0625 -10.765625 C 6.945312 -11.160156 6.789062 -11.476562 6.59375 -11.71875 C 6.40625 -11.957031 6.175781 -12.046875 5.90625 -11.984375 C 5.519531 -11.921875 5.234375 -11.726562 5.046875 -11.40625 C 4.859375 -11.09375 4.742188 -10.71875 4.703125 -10.28125 C 4.660156 -9.84375 4.648438 -9.382812 4.671875 -8.90625 C 4.703125 -8.4375 4.75 -7.988281 4.8125 -7.5625 C 4.882812 -7.132812 4.925781 -6.796875 4.9375 -6.546875 C 4.445312 -7.023438 3.988281 -7.53125 3.5625 -8.0625 C 3.132812 -8.601562 2.679688 -9.117188 2.203125 -9.609375 C 2.148438 -9.953125 2.066406 -10.253906 1.953125 -10.515625 C 1.835938 -10.785156 1.671875 -10.984375 1.453125 -11.109375 C 1.242188 -11.242188 0.941406 -11.269531 0.546875 -11.1875 C 0.242188 -11.125 -0.0234375 -11.035156 -0.265625 -10.921875 C -0.515625 -10.816406 -0.691406 -10.660156 -0.796875 -10.453125 C -0.898438 -10.242188 -0.921875 -9.953125 -0.859375 -9.578125 C -0.785156 -8.953125 -0.691406 -8.332031 -0.578125 -7.71875 C -0.460938 -7.101562 -0.351562 -6.492188 -0.25 -5.890625 C -0.21875 -5.722656 -0.1875 -5.425781 -0.15625 -5 C -0.125 -4.582031 -0.078125 -4.109375 -0.015625 -3.578125 C 0.046875 -3.046875 0.128906 -2.53125 0.234375 -2.03125 C 0.335938 -1.53125 0.476562 -1.113281 0.65625 -0.78125 C 0.832031 -0.445312 1.054688 -0.269531 1.328125 -0.25 Z M 1.328125 -0.25 "/></g></g></g><g fill="#f65622" fill-opacity="1"><g transform="translate(69.445023, 46.76118)"><g><path d="M 2.03125 -0.328125 C 2.21875 -0.367188 2.296875 -0.382812 2.265625 -0.375 C 2.242188 -0.375 2.191406 -0.363281 2.109375 -0.34375 C 2.035156 -0.320312 1.988281 -0.3125 1.96875 -0.3125 C 1.957031 -0.3125 2.035156 -0.328125 2.203125 -0.359375 C 2.035156 -0.316406 2.003906 -0.300781 2.109375 -0.3125 C 2.210938 -0.332031 2.414062 -0.378906 2.71875 -0.453125 C 3.019531 -0.523438 3.363281 -0.632812 3.75 -0.78125 C 4.132812 -0.925781 4.515625 -1.109375 4.890625 -1.328125 C 5.265625 -1.554688 5.585938 -1.828125 5.859375 -2.140625 C 6.128906 -2.460938 6.289062 -2.816406 6.34375 -3.203125 C 6.394531 -3.535156 6.332031 -3.769531 6.15625 -3.90625 C 5.976562 -4.039062 5.738281 -4.109375 5.4375 -4.109375 C 5.132812 -4.117188 4.8125 -4.085938 4.46875 -4.015625 C 4.132812 -3.953125 3.816406 -3.878906 3.515625 -3.796875 C 3.222656 -3.722656 3 -3.671875 2.84375 -3.640625 C 2.75 -4.703125 2.6875 -5.785156 2.65625 -6.890625 C 2.632812 -8.003906 2.5 -9.085938 2.25 -10.140625 C 2.175781 -10.453125 2.023438 -10.703125 1.796875 -10.890625 C 1.578125 -11.085938 1.316406 -11.210938 1.015625 -11.265625 C 0.722656 -11.316406 0.429688 -11.289062 0.140625 -11.1875 C -0.148438 -11.082031 -0.394531 -10.882812 -0.59375 -10.59375 C -0.769531 -10.34375 -0.859375 -10.007812 -0.859375 -9.59375 C -0.867188 -9.175781 -0.832031 -8.722656 -0.75 -8.234375 C -0.675781 -7.753906 -0.578125 -7.265625 -0.453125 -6.765625 C -0.328125 -6.265625 -0.203125 -5.800781 -0.078125 -5.375 C 0.0351562 -4.945312 0.113281 -4.59375 0.15625 -4.3125 C 0.207031 -4.082031 0.242188 -3.785156 0.265625 -3.421875 C 0.296875 -3.054688 0.335938 -2.675781 0.390625 -2.28125 C 0.441406 -1.882812 0.523438 -1.519531 0.640625 -1.1875 C 0.765625 -0.863281 0.9375 -0.613281 1.15625 -0.4375 C 1.382812 -0.269531 1.675781 -0.234375 2.03125 -0.328125 Z M 2.03125 -0.328125 "/></g></g></g><g fill="#f65622" fill-opacity="1"><g transform="translate(76.451548, 45.672263)"><g><path d="M 0.75 -0.5625 C 0.863281 -0.375 1.015625 -0.265625 1.203125 -0.234375 C 1.398438 -0.210938 1.601562 -0.238281 1.8125 -0.3125 C 2.03125 -0.382812 2.222656 -0.488281 2.390625 -0.625 C 2.554688 -0.757812 2.664062 -0.90625 2.71875 -1.0625 C 2.832031 -1.414062 2.878906 -1.789062 2.859375 -2.1875 C 2.835938 -2.59375 2.796875 -3 2.734375 -3.40625 C 2.679688 -3.8125 2.640625 -4.191406 2.609375 -4.546875 C 2.585938 -4.734375 2.578125 -5.019531 2.578125 -5.40625 C 2.585938 -5.789062 2.582031 -6.226562 2.5625 -6.71875 C 2.550781 -7.21875 2.523438 -7.726562 2.484375 -8.25 C 2.441406 -8.769531 2.367188 -9.25 2.265625 -9.6875 C 2.171875 -10.132812 2.035156 -10.503906 1.859375 -10.796875 C 1.679688 -11.097656 1.453125 -11.257812 1.171875 -11.28125 C 0.546875 -11.363281 0.078125 -11.300781 -0.234375 -11.09375 C -0.546875 -10.882812 -0.738281 -10.582031 -0.8125 -10.1875 C -0.894531 -9.789062 -0.90625 -9.359375 -0.84375 -8.890625 C -0.78125 -8.421875 -0.691406 -7.953125 -0.578125 -7.484375 C -0.460938 -7.015625 -0.375 -6.601562 -0.3125 -6.25 C -0.238281 -5.832031 -0.175781 -5.363281 -0.125 -4.84375 C -0.0820312 -4.332031 -0.0234375 -3.800781 0.046875 -3.25 C 0.117188 -2.707031 0.207031 -2.203125 0.3125 -1.734375 C 0.425781 -1.265625 0.570312 -0.875 0.75 -0.5625 Z M 0.75 -0.5625 "/></g></g></g><g fill="#f65622" fill-opacity="1"><g transform="translate(80.090849, 45.106662)"><g><path d="M 1.328125 -0.25 C 1.804688 -0.207031 2.164062 -0.316406 2.40625 -0.578125 C 2.644531 -0.835938 2.789062 -1.179688 2.84375 -1.609375 C 2.894531 -2.046875 2.898438 -2.507812 2.859375 -3 C 2.816406 -3.488281 2.757812 -3.953125 2.6875 -4.390625 C 2.625 -4.835938 2.582031 -5.195312 2.5625 -5.46875 C 2.6875 -5.300781 2.84375 -5.0625 3.03125 -4.75 C 3.226562 -4.4375 3.457031 -4.097656 3.71875 -3.734375 C 3.976562 -3.378906 4.253906 -3.035156 4.546875 -2.703125 C 4.847656 -2.378906 5.171875 -2.113281 5.515625 -1.90625 C 5.859375 -1.707031 6.21875 -1.609375 6.59375 -1.609375 C 6.96875 -1.617188 7.359375 -1.765625 7.765625 -2.046875 C 8.015625 -2.222656 8.171875 -2.488281 8.234375 -2.84375 C 8.304688 -3.207031 8.320312 -3.609375 8.28125 -4.046875 C 8.238281 -4.492188 8.164062 -4.941406 8.0625 -5.390625 C 7.96875 -5.847656 7.867188 -6.269531 7.765625 -6.65625 C 7.671875 -7.039062 7.609375 -7.351562 7.578125 -7.59375 C 7.554688 -7.738281 7.523438 -7.988281 7.484375 -8.34375 C 7.453125 -8.707031 7.398438 -9.101562 7.328125 -9.53125 C 7.265625 -9.96875 7.175781 -10.378906 7.0625 -10.765625 C 6.945312 -11.160156 6.789062 -11.476562 6.59375 -11.71875 C 6.40625 -11.957031 6.175781 -12.046875 5.90625 -11.984375 C 5.519531 -11.921875 5.234375 -11.726562 5.046875 -11.40625 C 4.859375 -11.09375 4.742188 -10.71875 4.703125 -10.28125 C 4.660156 -9.84375 4.648438 -9.382812 4.671875 -8.90625 C 4.703125 -8.4375 4.75 -7.988281 4.8125 -7.5625 C 4.882812 -7.132812 4.925781 -6.796875 4.9375 -6.546875 C 4.445312 -7.023438 3.988281 -7.53125 3.5625 -8.0625 C 3.132812 -8.601562 2.679688 -9.117188 2.203125 -9.609375 C 2.148438 -9.953125 2.066406 -10.253906 1.953125 -10.515625 C 1.835938 -10.785156 1.671875 -10.984375 1.453125 -11.109375 C 1.242188 -11.242188 0.941406 -11.269531 0.546875 -11.1875 C 0.242188 -11.125 -0.0234375 -11.035156 -0.265625 -10.921875 C -0.515625 -10.816406 -0.691406 -10.660156 -0.796875 -10.453125 C -0.898438 -10.242188 -0.921875 -9.953125 -0.859375 -9.578125 C -0.785156 -8.953125 -0.691406 -8.332031 -0.578125 -7.71875 C -0.460938 -7.101562 -0.351562 -6.492188 -0.25 -5.890625 C -0.21875 -5.722656 -0.1875 -5.425781 -0.15625 -5 C -0.125 -4.582031 -0.078125 -4.109375 -0.015625 -3.578125 C 0.046875 -3.046875 0.128906 -2.53125 0.234375 -2.03125 C 0.335938 -1.53125 0.476562 -1.113281 0.65625 -0.78125 C 0.832031 -0.445312 1.054688 -0.269531 1.328125 -0.25 Z M 1.328125 -0.25 "/></g></g></g><g fill="#f65622" fill-opacity="1"><g transform="translate(89.087098, 43.708512)"><g><path d="M 0.921875 -0.625 C 1.109375 -0.445312 1.398438 -0.351562 1.796875 -0.34375 C 2.191406 -0.34375 2.628906 -0.394531 3.109375 -0.5 C 3.597656 -0.601562 4.078125 -0.75 4.546875 -0.9375 C 5.023438 -1.132812 5.4375 -1.34375 5.78125 -1.5625 C 6.125 -1.78125 6.347656 -1.992188 6.453125 -2.203125 C 6.710938 -2.691406 6.828125 -3.070312 6.796875 -3.34375 C 6.765625 -3.613281 6.640625 -3.800781 6.421875 -3.90625 C 6.203125 -4.019531 5.925781 -4.078125 5.59375 -4.078125 C 5.269531 -4.085938 4.921875 -4.0625 4.546875 -4 C 4.171875 -3.9375 3.816406 -3.867188 3.484375 -3.796875 C 3.148438 -3.722656 2.878906 -3.660156 2.671875 -3.609375 C 2.492188 -3.609375 2.378906 -3.664062 2.328125 -3.78125 C 2.273438 -3.894531 2.257812 -4.039062 2.28125 -4.21875 C 2.3125 -4.394531 2.359375 -4.566406 2.421875 -4.734375 C 2.492188 -4.910156 2.566406 -5.035156 2.640625 -5.109375 C 2.859375 -5.347656 3.117188 -5.53125 3.421875 -5.65625 C 3.734375 -5.78125 4.039062 -5.898438 4.34375 -6.015625 C 4.65625 -6.140625 4.90625 -6.332031 5.09375 -6.59375 C 5.332031 -6.9375 5.421875 -7.179688 5.359375 -7.328125 C 5.304688 -7.472656 5.144531 -7.5625 4.875 -7.59375 C 4.613281 -7.625 4.3125 -7.628906 3.96875 -7.609375 C 3.625 -7.585938 3.285156 -7.578125 2.953125 -7.578125 C 2.628906 -7.585938 2.378906 -7.640625 2.203125 -7.734375 C 2.035156 -7.835938 1.984375 -8.035156 2.046875 -8.328125 C 2.117188 -8.554688 2.289062 -8.742188 2.5625 -8.890625 C 2.84375 -9.046875 3.15625 -9.1875 3.5 -9.3125 C 3.84375 -9.4375 4.164062 -9.578125 4.46875 -9.734375 C 4.769531 -9.890625 4.988281 -10.078125 5.125 -10.296875 C 5.269531 -10.523438 5.257812 -10.816406 5.09375 -11.171875 C 5.019531 -11.367188 4.847656 -11.492188 4.578125 -11.546875 C 4.316406 -11.597656 4.003906 -11.613281 3.640625 -11.59375 C 3.285156 -11.582031 2.925781 -11.546875 2.5625 -11.484375 C 2.195312 -11.421875 1.867188 -11.351562 1.578125 -11.28125 C 1.285156 -11.207031 1.070312 -11.15625 0.9375 -11.125 C 0.570312 -11.050781 0.253906 -10.96875 -0.015625 -10.875 C -0.296875 -10.78125 -0.5 -10.625 -0.625 -10.40625 C -0.757812 -10.1875 -0.796875 -9.867188 -0.734375 -9.453125 C -0.640625 -8.816406 -0.550781 -8.179688 -0.46875 -7.546875 C -0.382812 -6.910156 -0.296875 -6.269531 -0.203125 -5.625 C -0.160156 -5.320312 -0.125 -4.9375 -0.09375 -4.46875 C -0.0625 -4 -0.015625 -3.507812 0.046875 -3 C 0.117188 -2.5 0.222656 -2.03125 0.359375 -1.59375 C 0.492188 -1.164062 0.679688 -0.84375 0.921875 -0.625 Z M 0.921875 -0.625 "/></g></g></g></svg>